<svg preserveAspectRatio="none" width="100%" height="100%" overflow="visible" style="display: block;" viewBox="0 0 22.5 26.25" fill="none" xmlns="http://www.w3.org/2000/svg">
<path id="Vector" d="M22.4879 16.3629L21.456 9.11954C21.4293 8.93833 21.3972 8.76244 21.3598 8.58655C21.3598 8.55457 21.3491 8.52259 21.3384 8.49061C20.8465 6.22005 19.6275 4.15736 17.8524 2.62233C15.8955 0.932741 13.3826 0 10.7895 0C5.60861 0 1.2725 3.65635 0.235252 8.51193C0.235252 8.51193 0.235252 8.52259 0.235252 8.52792C0.0801997 9.24746 0 9.99366 0 10.7612C0 14.3056 0.967741 16.7254 1.81785 18.8627C2.51826 20.6216 3.12778 22.1406 3.12778 23.9954C3.12778 24.3739 3.12778 24.7096 3.12778 24.7096V25.8876C3.12243 25.9835 3.15986 26.0741 3.22402 26.1434C3.29352 26.2127 3.38442 26.25 3.47531 26.25H9.72552C9.72552 26.25 9.73086 26.25 9.73621 26.25H11.8481C11.8481 26.25 11.8481 26.25 11.8535 26.25H17.1841C17.2803 26.25 17.3712 26.2127 17.4354 26.1487C17.4995 26.0848 17.5423 25.9888 17.5423 25.8982V23.2279H19.6382C20.0712 23.2279 20.4188 22.8761 20.4188 22.4497V17.1145H21.8517C22.0388 17.1145 22.2206 17.0345 22.3436 16.8906C22.4665 16.7467 22.52 16.5602 22.4933 16.3789L22.4879 16.3629ZM10.7895 0.708883C13.2115 0.708883 15.5533 1.57766 17.3872 3.16066C18.9485 4.50914 20.0445 6.28934 20.5524 8.25609H1.02655C2.144 3.92284 6.09516 0.708883 10.7895 0.708883ZM9.94473 25.5251L7.27142 20.483H14.3022L11.6289 25.5251H9.94473ZM14.6818 19.7688H6.89181L4.21849 14.7213H17.3552L14.6818 19.7688ZM17.7348 14.0124H3.83888L1.16557 8.96497H20.4081L17.7348 14.0124ZM2.47549 18.5909C1.64676 16.5175 0.705756 14.1617 0.705756 10.7558C0.705756 10.4094 0.721795 10.0629 0.759221 9.72716L3.30956 14.5348L6.36249 20.2911L9.13739 25.5251H3.82819V24.7043C3.82819 24.7043 3.82819 24.3685 3.82819 23.9848C3.82819 21.9914 3.1652 20.3391 2.47014 18.5909H2.47549ZM20.0606 16.3843C19.8627 16.3843 19.7023 16.5442 19.7023 16.7414V22.4338C19.7023 22.4711 19.6702 22.503 19.6328 22.503H17.1787C16.9809 22.503 16.8205 22.6629 16.8205 22.8602V25.5305H12.4363L15.2112 20.2964L18.2641 14.5401L20.8144 9.72716L21.7608 16.3949H20.0552L20.0606 16.3843Z" fill="var(--fill-0, white)"/>
</svg>
